<svg width="24" height="24" viewBox="0 0 24 24" fill="none" xmlns="http://www.w3.org/2000/svg">
<path d="M12.5 3C7.25323 3 3 7.25323 3 12.5C3 17.7468 7.25323 22 12.5 22C17.7468 22 22 17.7468 22 12.5C22 7.25323 17.7468 3 12.5 3ZM10.1745 16.4376H8.25073V10.2467H10.1745V16.4376ZM9.20073 9.48672C8.59312 9.48672 8.20026 9.05625 8.20026 8.52385C8.20026 7.98057 8.605 7.56297 9.22547 7.56297C9.84594 7.56297 10.2259 7.98057 10.2378 8.52385C10.2378 9.05625 9.84594 9.48672 9.20073 9.48672ZM17.2005 16.4376H15.2768V13.0067C15.2768 12.2081 14.9977 11.6658 14.302 11.6658C13.7706 11.6658 13.4549 12.0329 13.3154 12.3862C13.264 12.5119 13.2511 12.69 13.2511 12.8671V16.4366H11.3264V12.2209C11.3264 11.4481 11.3016 10.8019 11.2759 10.2457H12.9473L13.0354 11.1057H13.074C13.3273 10.7019 13.9478 10.1062 14.9858 10.1062C16.2515 10.1062 17.2005 10.9543 17.2005 12.7771V16.4376Z" fill="#F6F7F9"/>
</svg>
